<?xml version="1.0" encoding="UTF-8" standalone="no"?>
<svg width="298px" height="340px" viewBox="0 80 298 340" version="1.1" xmlns="http://www.w3.org/2000/svg" xmlns:xlink="http://www.w3.org/1999/xlink" xmlns:sketch="http://www.bohemiancoding.com/sketch/ns">
    <g id="Page 1" stroke="none" stroke-width="1" fill="none" fill-rule="evenodd">
        <g id="Group">
            <path d="M27.383,386.266 L0.313,82.646 L297.763,82.646 L270.665,386.217 L148.856,419.986 L27.383,386.266 Z M27.383,386.266" id="Shape" fill="#E44F26"></path>
            <path d="M149.038,394.175 L247.465,366.887 L270.623,107.471 L149.038,107.471 L149.038,394.175 Z M149.038,394.175" id="Shape" fill="#F1662A"></path>
            <path d="M149.038,220.08 L99.763,220.08 L96.359,181.948 L149.038,181.948 L149.038,144.709 L148.909,144.709 L55.663,144.709 L56.555,154.7 L65.707,257.316 L149.038,257.316 L149.038,220.08 Z M149.038,220.08" id="Shape" fill="#EBEBEB"></path>
            <path d="M149.038,316.788 L148.875,316.834 L107.403,305.635 L104.751,275.937 L84.6,275.937 L67.371,275.937 L72.588,334.404 L148.866,355.58 L149.038,355.532 L149.038,316.788 Z M149.038,316.788" id="Shape" fill="#EBEBEB"></path>
            <path d="M148.909,220.08 L148.909,257.316 L194.763,257.316 L190.441,305.61 L148.909,316.82 L148.909,355.562 L225.249,334.404 L225.808,328.114 L234.559,230.079 L235.467,220.08 L225.433,220.08 L148.909,220.08 Z M148.909,220.08" id="Shape" fill="#FFFFFF"></path>
            <path d="M148.909,144.709 L148.909,167.837 L148.909,181.856 L148.909,181.948 L238.736,181.948 L238.856,181.948 L239.603,173.578 L241.299,154.7 L242.19,144.709 L148.909,144.709 Z M148.909,144.709" id="Shape" fill="#FFFFFF"></path>
        </g>
    </g>
</svg>
